<?xml version="1.0" standalone="no"?>
<!DOCTYPE svg PUBLIC "-//W3C//DTD SVG 20010904//EN"
 "http://www.w3.org/TR/2001/REC-SVG-20010904/DTD/svg10.dtd">
<svg version="1.0" xmlns="http://www.w3.org/2000/svg"
 width="586.000000pt" height="586.000000pt" viewBox="0 0 586.000000 586.000000"
 preserveAspectRatio="xMidYMid meet">
<metadata>
Created by potrace 1.14, written by Peter Selinger 2001-2017
</metadata>
<g transform="translate(0.000000,586.000000) scale(0.100000,-0.100000)"
fill="#000000" stroke="none">
<path d="M1089 3722 c0 -10 -1 -204 -1 -432 0 -410 3 -484 23 -538 6 -15 10
-29 11 -32 0 -22 55 -114 90 -152 87 -94 210 -148 378 -164 53 -5 326 -8 430
-5 l25 1 -1 108 c-1 59 -2 110 -3 113 0 4 -90 7 -200 7 -256 0 -335 16 -408
85 -27 24 -59 89 -69 137 -4 19 -8 225 -8 458 -1 367 -3 423 -16 426 -8 2 -68
4 -132 4 -103 0 -118 -2 -119 -16z"/>
<path d="M2199 3701 c-2 -102 -4 -531 -2 -531 5 0 118 288 127 325 2 6 7 21
13 35 22 50 73 192 73 200 0 4 -47 8 -105 8 l-105 -1 -1 -36z"/>
<path d="M3115 3725 c-248 -44 -398 -213 -431 -490 -9 -74 -10 -826 -1 -832 6
-4 162 -7 239 -4 l28 1 0 403 c0 221 2 411 4 422 30 153 101 236 231 272 11 3
174 8 362 10 l343 3 0 -552 c0 -303 2 -554 5 -556 2 -3 44 -5 92 -4 186 1 175
0 172 25 -2 12 0 28 4 35 5 6 5 12 0 12 -4 0 -8 50 -8 110 0 61 4 110 8 110 5
0 5 6 1 12 -11 17 -11 538 -1 538 4 0 4 8 0 18 -10 20 -9 224 0 240 5 7 72 11
205 11 108 0 213 0 233 0 l36 1 -1 114 0 113 -726 0 c-524 0 -744 -4 -795 -12z"/>
<path d="M2436 3423 c-8 -27 -29 -84 -46 -128 -17 -44 -33 -84 -34 -90 -2 -5
-6 -17 -9 -25 -3 -8 -34 -89 -67 -180 -34 -91 -66 -174 -71 -186 -13 -25 -18
-404 -6 -411 13 -8 247 -6 255 2 9 9 10 1065 0 1065 -4 0 -14 -21 -22 -47z"/>
<path d="M3034 3181 c-2 -2 -4 -55 -4 -118 l0 -113 360 0 360 0 1 23 c2 112 1
198 -3 203 -7 6 -708 11 -714 5z"/>
<path d="M1098 2258 c-2 -18 -1 -73 2 -123 5 -82 7 -90 25 -90 20 0 21 4 24
66 1 26 2 26 70 26 95 -1 121 14 121 68 0 71 -13 80 -133 83 l-106 4 -3 -34z
m181 -12 c15 -10 14 -66 -1 -68 -7 0 -39 -2 -70 -3 -61 -3 -67 3 -60 55 3 24
7 26 62 24 32 -1 63 -5 69 -8z"/>
<path d="M2105 2272 c-17 -16 -20 -30 -19 -113 2 -123 1 -118 22 -115 14 2 17
15 20 80 2 53 7 76 15 75 29 -3 44 2 44 16 0 10 -11 15 -35 15 -29 0 -33 2
-22 14 6 8 21 16 33 18 32 4 27 23 -8 26 -19 2 -38 -4 -50 -16z"/>
<path d="M1508 2218 c-27 -9 -28 -13 -28 -78 0 -47 4 -71 15 -80 17 -14 183
-21 191 -8 11 17 -6 22 -77 23 -50 1 -73 5 -79 15 -8 12 7 20 73 40 66 21 83
30 85 47 5 33 -33 53 -98 52 -30 0 -67 -5 -82 -11z m125 -27 c4 0 7 -5 7 -11
0 -8 -88 -40 -110 -40 -10 0 -9 33 1 46 7 9 67 12 102 5z"/>
<path d="M1837 2212 c-11 -12 -15 -37 -15 -87 1 -81 2 -85 26 -78 16 4 18 14
17 66 -1 72 7 87 46 87 19 0 29 5 29 15 0 22 -82 20 -103 -3z"/>
<path d="M2359 2224 c-20 -6 -29 -34 -29 -95 0 -71 14 -82 102 -83 99 -1 108
7 108 93 0 52 -4 68 -17 77 -18 11 -134 16 -164 8z m123 -31 c14 -3 17 -15 16
-54 0 -27 -4 -52 -9 -54 -15 -10 -74 -13 -95 -5 -19 8 -22 15 -19 55 1 27 8
51 16 56 14 9 60 10 91 2z"/>
<path d="M2699 2213 c-19 -23 -21 -163 -3 -163 8 0 17 0 22 0 4 0 8 27 8 60 2
82 7 90 48 90 27 0 34 3 30 15 -9 21 -87 20 -105 -2z"/>
<path d="M2970 2212 c-16 -14 -20 -30 -21 -90 -1 -40 1 -75 3 -78 3 -2 13 -2
22 2 12 5 16 19 16 63 0 63 11 81 51 81 32 0 39 -14 39 -85 0 -94 41 -85 42 9
2 63 13 79 55 74 27 -3 28 -5 31 -70 2 -50 7 -68 19 -72 9 -4 18 -5 20 -2 2 2
4 36 5 76 1 66 -1 75 -22 92 -20 16 -33 18 -70 13 -25 -4 -52 -6 -60 -6 -8 1
-36 3 -62 6 -34 3 -53 -1 -68 -13z"/>
<path d="M3410 2212 c0 -15 11 -18 78 -17 60 0 77 -3 77 -14 0 -11 -13 -14
-54 -14 -71 2 -97 -9 -103 -42 -8 -39 1 -63 26 -71 35 -11 129 -12 154 -1 24
11 25 15 24 96 0 71 -11 78 -117 79 -74 1 -85 -1 -85 -16z m161 -85 c9 -13 -1
-47 -15 -48 -19 -2 -60 -2 -83 0 -17 1 -23 7 -23 24 0 13 3 26 6 29 9 10 109
6 115 -5z"/>
<path d="M3783 2218 c-24 -11 -24 -14 -26 -115 -1 -46 2 -57 16 -59 24 -3 28
9 28 74 0 33 5 60 12 64 18 12 95 9 102 -3 4 -6 7 -37 6 -69 -1 -59 11 -82 31
-62 14 14 17 121 5 147 -6 11 -15 23 -21 27 -17 11 -128 8 -153 -4z"/>
<path d="M4134 2215 c-10 -7 -17 -30 -18 -66 -3 -61 9 -98 33 -100 59 -5 133
-3 137 3 8 13 -21 23 -70 24 -26 1 -51 6 -55 13 -8 12 -4 91 4 99 2 3 26 6 52
8 59 5 76 11 68 24 -9 14 -131 10 -151 -5z"/>
<path d="M4453 2220 c-13 -5 -23 -13 -24 -17 -7 -53 -2 -129 9 -140 15 -14 17
-15 120 -17 60 -2 72 1 72 14 0 13 -11 16 -57 15 -32 0 -68 1 -80 3 -37 7 -26
30 20 42 105 28 122 37 119 62 -2 12 -10 28 -18 34 -17 14 -130 16 -161 4z
m120 -27 c9 -2 17 -8 17 -12 0 -6 -95 -41 -113 -41 -13 0 -7 48 6 53 16 6 68
6 90 0z"/>
</g>
</svg>
